<svg xmlns="http://www.w3.org/2000/svg" viewBox="0 0 212.19 211.5"><defs><style>.cls-1{fill:#fff;}</style></defs><g id="Layer_2" data-name="Layer 2"><g id="Ñëîé_1" data-name="Ñëîé 1"><path class="cls-1" d="M202.76,139.5l9.43-84.74L43.86,36.62,39.79,0H0V13.5H27.71L44.34,163.26a24.7,24.7,0,1,0,32.15,23.49,24.42,24.42,0,0,0-2.83-11.25h82.16A24.42,24.42,0,0,0,153,186.75,24.75,24.75,0,1,0,177.74,162h-120l-2.5-22.5ZM51.74,198a11.21,11.21,0,0,1-.46-22.41l.6-.06A11.24,11.24,0,0,1,51.74,198ZM189,186.75a11.25,11.25,0,1,1-11.25-11.25A11.25,11.25,0,0,1,189,186.75Z"/></g></g></svg>